<svg width="50" height="50" viewBox="0 0 50 50" fill="none" xmlns="http://www.w3.org/2000/svg">
<path d="M7.5 35.8337H9.16668V37.5004H7.5V35.8337Z" fill="#34666f"/>
<path d="M5.8335 37.5005H7.50017V39.1672H5.8335V37.5005Z" fill="#34666f"/>
<path d="M9.1665 37.5005H10.8332V39.1672H9.1665V37.5005Z" fill="#34666f"/>
<path d="M7.5 39.167H9.16668V40.8337H7.5V39.167Z" fill="#34666f"/>
<path d="M43.3335 1.66675H45.0002V3.33342H43.3335V1.66675Z" fill="#34666f"/>
<path d="M40.8335 4.16675H42.5002V5.83342H40.8335V4.16675Z" fill="#34666f"/>
<path d="M45.8335 4.16675H47.5002V5.83342H45.8335V4.16675Z" fill="#34666f"/>
<path d="M43.3335 6.66699H45.0002V8.33367H43.3335V6.66699Z" fill="#34666f"/>
<path d="M14.2901 13.469C14.6101 13.9504 15.0664 14.3256 15.6005 14.5467C16.1347 14.7677 16.7227 14.8245 17.2893 14.7099L18.9322 14.3815L18.2656 19.0489C18.2343 19.2677 18.2913 19.4899 18.4238 19.6667C18.5564 19.8435 18.7538 19.9603 18.9725 19.9916L19.7882 20.1084C20.1092 20.1543 20.4332 20.1954 20.7569 20.2322V22.1552L16.0012 26.9108C15.9078 27.0042 15.838 27.1184 15.7974 27.2441C15.7568 27.3697 15.7467 27.5032 15.7679 27.6336C15.789 27.7639 15.8408 27.8873 15.919 27.9937C15.9973 28.1001 16.0996 28.1864 16.2177 28.2454L16.8501 28.5617L16.3208 29.0911C15.8647 29.5456 15.5416 30.1163 15.3865 30.7413C15.2313 31.3662 15.25 32.0217 15.4405 32.6368L18.1463 41.4324L17.8645 41.7136C17.1952 42.3829 16.7255 43.2253 16.508 44.1465C16.2904 45.0677 16.3336 46.0313 16.6327 46.9293C16.6691 47.0387 16.7278 47.1394 16.8051 47.225C16.8824 47.3106 16.9766 47.3792 17.0818 47.4265C17.187 47.4738 17.3009 47.4987 17.4162 47.4997C17.5315 47.5008 17.6458 47.4778 17.7518 47.4324L23.5852 44.9324C23.7715 44.8525 23.9224 44.7074 24.0095 44.5243C24.0966 44.3412 24.1139 44.1326 24.0582 43.9376L22.4644 38.3573C22.4607 38.3443 22.4567 38.3314 22.4525 38.3187L20.8595 32.7423L22.777 30.8248C23.5473 31.0284 24.3246 31.2005 25.1088 31.3413L23.7671 34.4733C23.5824 34.9004 23.4843 35.36 23.4785 35.8253C23.4727 36.2907 23.5592 36.7526 23.7332 37.1842L26.4871 44.0692L26.221 44.4686C25.7881 45.1135 25.5092 45.8492 25.406 46.619C25.3027 47.3888 25.3779 48.172 25.6257 48.9081L25.7997 49.43C25.8361 49.5394 25.8949 49.64 25.9722 49.7255C26.0495 49.8109 26.1437 49.8795 26.2489 49.9267C26.354 49.9739 26.4678 49.9988 26.5831 49.9998C26.6984 50.0008 26.8126 49.9778 26.9185 49.9324L32.7519 47.4324C32.9537 47.3459 33.1132 47.1833 33.1958 46.9798C33.2783 46.7764 33.2773 46.5486 33.1928 46.3459L29.1529 36.6503L30.9705 31.803C31.7597 31.7871 32.5496 31.7401 33.3401 31.6622C33.4799 31.6483 33.6138 31.5992 33.7295 31.5196C33.8452 31.44 33.9389 31.3325 34.002 31.207C34.065 31.0815 34.0953 30.9421 34.09 30.8018C34.0848 30.6614 34.0441 30.5247 33.9719 30.4043L29.0905 22.2688V20.1357C29.4215 20.0904 29.7468 20.0419 30.0613 19.989C30.1715 19.9706 30.2767 19.9302 30.371 19.8703C30.4652 19.8104 30.5464 19.7322 30.6098 19.6403C30.6732 19.5484 30.7174 19.4447 30.74 19.3353C30.7625 19.226 30.7628 19.1132 30.7409 19.0037L30.4478 17.5357L34.2082 21.2968C34.4003 21.4895 34.6426 21.6242 34.9076 21.6856L39.7336 22.8158C39.7501 22.8198 39.7668 22.8216 39.7834 22.8246C39.7951 22.8265 39.8065 22.8298 39.8185 22.8313L42.8769 23.2215C42.9186 23.227 42.9611 23.2328 43.003 23.2385C43.2051 23.2704 43.4092 23.2879 43.6138 23.2911C44.159 23.2911 44.8222 23.1284 45.4149 22.3509C45.4257 22.337 45.4361 22.3226 45.4461 22.3077C45.6362 22.0225 45.7603 21.6984 45.8093 21.3591C45.8583 21.0199 45.831 20.6739 45.7293 20.3466C45.6276 20.0192 45.4542 19.7187 45.2216 19.4669C44.989 19.215 44.7031 19.0183 44.3849 18.891C44.3032 18.8584 44.2169 18.8389 44.1291 18.8332L41.7778 18.6813L37.0902 16.8024L32.6911 11.6699C33.0408 11.1517 33.2555 10.5543 33.3158 9.93208C33.376 9.30982 33.2799 8.68237 33.0362 8.10668C32.841 7.64235 32.5536 7.22248 32.1914 6.8725L32.1249 6.80802C31.3648 6.05482 30.8045 5.12396 30.4947 4.09968C30.0799 2.76752 29.2014 1.62813 28.0186 0.888142C26.8358 0.148154 25.4269 -0.143423 24.0475 0.0662936C22.6682 0.27601 21.4096 0.973132 20.5002 2.03122C19.5907 3.08932 19.0906 4.43831 19.0905 5.83354V7.15126C19.0889 8.02171 19.2723 8.88256 19.6285 9.67679L17.8259 9.93439L13.7492 3.81978C13.5715 3.5499 13.3423 3.31781 13.0746 3.13685C12.807 2.9559 12.5061 2.82965 12.1895 2.76538C11.8729 2.7011 11.5466 2.70007 11.2296 2.76233C10.9126 2.82459 10.611 2.94893 10.3422 3.12818C10.0733 3.30743 9.84263 3.53806 9.66327 3.80681C9.48392 4.07555 9.35948 4.3771 9.29709 4.69412C9.23471 5.01114 9.23563 5.33736 9.29978 5.65402C9.36394 5.97069 9.49007 6.27154 9.67093 6.53927L14.2901 13.469ZM21.1011 39.6524L22.2543 43.69L18.0428 45.4949C18.0399 45.4366 18.0384 45.3783 18.0384 45.32C18.0371 44.8691 18.1252 44.4224 18.2977 44.0058C18.4702 43.5892 18.7236 43.2109 19.0433 42.8929L19.6797 42.2564C19.7868 42.1493 19.8627 42.0151 19.8992 41.8681C19.9357 41.7211 19.9314 41.567 19.8869 41.4223L19.5062 40.1845L21.1011 39.6524ZM19.3344 31.9109C19.2293 32.0159 19.1543 32.1472 19.117 32.2911C19.0797 32.4349 19.0816 32.5861 19.1224 32.729L20.6419 38.0485L19.0161 38.5908L17.0336 32.1462C16.9328 31.8206 16.9229 31.4737 17.0051 31.143C17.0873 30.8123 17.2584 30.5103 17.4998 30.2698L18.452 29.3176C19.2761 29.678 20.1129 29.9999 20.9624 30.2834L19.3344 31.9109ZM29.6157 42.0929L31.3378 46.2259L27.1121 48.0369C27.011 47.5856 27.0029 47.1185 27.0883 46.6641C27.1736 46.2096 27.3506 45.7773 27.6085 45.3934L28.1179 44.6289C28.1928 44.5165 28.2393 44.3874 28.2532 44.253C28.2672 44.1186 28.2482 43.9828 28.198 43.8573L27.7421 42.7175L29.6157 42.0929ZM27.4774 36.3741C27.403 36.5725 27.4069 36.7917 27.4884 36.9872L28.973 40.5498L27.1221 41.1667L25.2811 36.5659C25.0979 36.1037 25.1045 35.5879 25.2994 35.1306L26.813 31.5974C27.6038 31.6926 28.3985 31.756 29.1971 31.7875L27.4774 36.3741ZM31.8493 30.1053C27.066 30.3575 22.2978 29.3818 17.9981 27.2711L21.9356 23.3336H27.7853L31.8493 30.1053ZM22.4238 21.667V20.3784C23.1264 20.4225 23.834 20.4461 24.5374 20.4461C25.4957 20.4461 26.4623 20.4044 27.4238 20.3217V21.667H22.4238ZM42.0177 20.3673L43.8624 20.4864C43.9337 20.5303 43.9958 20.5877 44.045 20.6555C44.0942 20.7234 44.1295 20.8002 44.149 20.8817C44.1685 20.9631 44.1717 21.0477 44.1585 21.1304C44.1453 21.2131 44.116 21.2924 44.0721 21.3638C43.8326 21.6704 43.7209 21.6555 43.2312 21.5875C43.1841 21.581 43.1375 21.5746 43.0892 21.5684L41.3638 21.3482L42.0177 20.3673ZM20.7571 5.83354C20.7575 4.83711 21.1149 3.87379 21.7645 3.11823C22.4141 2.36266 23.313 1.86487 24.2981 1.7151C25.2832 1.56533 26.2894 1.7735 27.1342 2.30186C27.979 2.83022 28.6065 3.6438 28.903 4.5951C29.2958 5.88546 30.0043 7.05743 30.9644 8.0048L31.0318 8.07022C31.2326 8.26538 31.3923 8.49885 31.5014 8.75683C31.6104 9.0148 31.6666 9.29203 31.6666 9.5721C31.6654 9.97338 31.5489 10.3659 31.331 10.7028C31.323 10.7001 31.3151 10.6967 31.3071 10.694L27.6154 9.46366C28.0331 8.89428 28.258 8.20637 28.2574 7.50022V5.0002C28.2574 4.77919 28.1696 4.56723 28.0133 4.41094C27.857 4.25466 27.6451 4.16687 27.424 4.16687H22.424C22.203 4.16687 21.991 4.25466 21.8348 4.41094C21.6785 4.56723 21.5907 4.77919 21.5907 5.0002V7.50022C21.59 8.14628 21.7783 8.77843 22.1323 9.31887L21.3719 9.42752C20.9673 8.73734 20.755 7.95132 20.7571 7.15126V5.83354ZM24.9238 9.16689C24.482 9.16637 24.0583 8.9906 23.7459 8.67815C23.4334 8.3657 23.2577 7.94208 23.2571 7.50022V5.83354H26.5905V7.50022C26.59 7.94206 26.4143 8.36566 26.1019 8.67811C25.7895 8.99056 25.3659 9.16634 24.924 9.16689H24.9238ZM26.5852 10.8769C26.5622 11.2527 26.4126 11.6096 26.1607 11.8895C25.9088 12.1693 25.5695 12.3556 25.1982 12.4178C24.8269 12.4801 24.4454 12.4147 24.116 12.2323C23.7867 12.0499 23.5288 11.7612 23.3845 11.4135C23.3089 11.2319 23.2666 11.0382 23.2595 10.8416L23.3741 10.8252C23.5292 10.8031 23.6748 10.7376 23.7942 10.6363C24.5247 10.8997 25.3242 10.8997 26.0547 10.6363C26.1346 10.7047 26.2268 10.7572 26.3263 10.7912L26.5852 10.8769ZM14.1636 7.44584L16.7303 11.2958C16.8176 11.4266 16.94 11.5301 17.0835 11.5942C17.2271 11.6584 17.3858 11.6807 17.5415 11.6585L21.604 11.0781C21.6797 11.9061 22.0621 12.6759 22.6762 13.2364C23.2903 13.7969 24.0917 14.1076 24.9231 14.1075C25.6961 14.1072 26.4449 13.8383 27.0415 13.3468C27.6382 12.8553 28.0455 12.1719 28.1939 11.4133L30.781 12.2757C30.9959 12.3463 31.187 12.4751 31.3331 12.6477L35.957 18.0426C36.0444 18.1445 36.1552 18.2239 36.2799 18.2738L40.3279 19.8961L39.5511 21.0613L35.3449 20.0762L29.6798 14.411C29.5533 14.2846 29.3895 14.2022 29.2126 14.1761C29.0357 14.1499 28.8551 14.1813 28.6974 14.2657C28.5398 14.3501 28.4135 14.483 28.3371 14.6447C28.2608 14.8064 28.2385 14.9883 28.2735 15.1637L28.9357 18.475C28.682 18.5103 28.4238 18.5431 28.163 18.5733C26.9595 18.7102 25.7492 18.779 24.538 18.7794C23.5803 18.7794 22.614 18.736 21.6663 18.6505C21.1239 18.6013 20.5747 18.5373 20.0338 18.46L20.7493 13.4514C20.7682 13.3195 20.7551 13.1849 20.7112 13.0591C20.6673 12.9333 20.5939 12.8198 20.4971 12.7282C20.4002 12.6366 20.2829 12.5696 20.1548 12.5327C20.0267 12.4959 19.8917 12.4903 19.761 12.5164L16.9632 13.0758C16.7203 13.125 16.4682 13.1008 16.2392 13.0062C16.0101 12.9115 15.8144 12.7508 15.6771 12.5445L12.9066 8.38866L14.1636 7.44584ZM10.979 4.89604C11.0234 4.7786 11.0958 4.67374 11.1898 4.59049C11.2838 4.50723 11.3966 4.44808 11.5185 4.41812C11.581 4.4026 11.6452 4.39473 11.7096 4.39468C11.8389 4.39459 11.9663 4.42649 12.0804 4.48754C12.1944 4.54858 12.2916 4.63688 12.3632 4.74458L13.2382 6.05708L11.9814 6.9998L11.0577 5.61479C10.9872 5.51039 10.9432 5.39038 10.9295 5.26515C10.9157 5.13992 10.9327 5.01323 10.979 4.89604V4.89604Z" fill="#34666f"/>
<path d="M0.569667 19.9575C1.25935 20.1853 1.897 20.5476 2.44571 21.0235C2.99442 21.4994 3.44329 22.0794 3.76635 22.73L4.25458 23.7063C4.3238 23.8447 4.43019 23.9611 4.56183 24.0425C4.69347 24.1238 4.84515 24.1669 4.9999 24.1669C5.15464 24.1669 5.30633 24.1238 5.43797 24.0425C5.56961 23.9611 5.67599 23.8447 5.74521 23.7063L6.23345 22.73C6.5565 22.0794 7.00538 21.4994 7.55409 21.0235C8.1028 20.5476 8.74045 20.1853 9.43013 19.9575C9.59602 19.9021 9.7403 19.796 9.84254 19.6541C9.94478 19.5123 9.9998 19.3418 9.9998 19.1669C9.9998 18.9921 9.94478 18.8216 9.84254 18.6797C9.7403 18.5379 9.59602 18.4317 9.43013 18.3764C8.74049 18.1486 8.10287 17.7864 7.55416 17.3106C7.00546 16.8348 6.55656 16.2549 6.23345 15.6044L5.74521 14.6281C5.67599 14.4897 5.56961 14.3733 5.43797 14.2919C5.30633 14.2106 5.15464 14.1675 4.9999 14.1675C4.84515 14.1675 4.69347 14.2106 4.56183 14.2919C4.43019 14.3733 4.3238 14.4897 4.25458 14.6281L3.76635 15.6044C3.44324 16.2549 2.99434 16.8348 2.44563 17.3106C1.89693 17.7864 1.2593 18.1486 0.569667 18.3764C0.403775 18.4317 0.259493 18.5379 0.157254 18.6797C0.055015 18.8216 0 18.9921 0 19.1669C0 19.3418 0.055015 19.5123 0.157254 19.6541C0.259493 19.796 0.403775 19.9021 0.569667 19.9575ZM4.9999 16.8199C5.5608 17.7657 6.33283 18.569 7.25564 19.1669C6.33281 19.7649 5.56077 20.5681 4.9999 21.5139C4.43899 20.5681 3.66697 19.7649 2.74416 19.1669C3.66699 18.569 4.43902 17.7657 4.9999 16.8199V16.8199Z" fill="#34666f"/>
<path d="M49.4301 34.2099C48.7405 33.9821 48.1029 33.6199 47.5542 33.1441C47.0055 32.6683 46.5566 32.0883 46.2334 31.4379L45.7452 30.4615C45.676 30.3231 45.5696 30.2068 45.438 30.1254C45.3063 30.0441 45.1546 30.001 44.9999 30.001C44.8452 30.001 44.6935 30.0441 44.5618 30.1254C44.4302 30.2068 44.3238 30.3231 44.2546 30.4615L43.7663 31.4379C43.4433 32.0884 42.9944 32.6684 42.4457 33.1443C41.897 33.6202 41.2594 33.9826 40.5697 34.2104C40.4038 34.2657 40.2595 34.3719 40.1573 34.5137C40.055 34.6556 40 34.8261 40 35.0009C40 35.1758 40.055 35.3463 40.1573 35.4881C40.2595 35.63 40.4038 35.7361 40.5697 35.7915C41.2594 36.0193 41.897 36.3816 42.4457 36.8575C42.9944 37.3334 43.4433 37.9134 43.7663 38.564L44.2546 39.5403C44.3238 39.6787 44.4302 39.7951 44.5618 39.8765C44.6935 39.9578 44.8452 40.0009 44.9999 40.0009C45.1546 40.0009 45.3063 39.9578 45.438 39.8765C45.5696 39.7951 45.676 39.6787 45.7452 39.5403L46.2334 38.564C46.5565 37.9134 47.0054 37.3334 47.5541 36.8575C48.1028 36.3816 48.7404 36.0193 49.4301 35.7915C49.596 35.7361 49.7403 35.63 49.8425 35.4881C49.9448 35.3463 49.9998 35.1758 49.9998 35.0009C49.9998 34.8261 49.9448 34.6556 49.8425 34.5137C49.7403 34.3719 49.596 34.2657 49.4301 34.2104V34.2099ZM44.9999 37.3474C44.439 36.4016 43.667 35.5984 42.7442 35.0004C43.667 34.4025 44.439 33.5992 44.9999 32.6534C45.5608 33.5992 46.3328 34.4025 47.2556 35.0004C46.3328 35.5983 45.5608 36.4016 44.9999 37.3474Z" fill="#34666f"/>
<path d="M12.8728 26.755C12.6751 26.6561 12.4463 26.6399 12.2366 26.7097C12.027 26.7796 11.8536 26.9299 11.7548 27.1276C11.4398 27.7613 11.2759 28.4593 11.2759 29.167C11.2759 29.8746 11.4398 30.5727 11.7548 31.2064C11.8032 31.3051 11.8707 31.3933 11.9534 31.4658C12.036 31.5384 12.1322 31.5938 12.2365 31.629C12.3407 31.6642 12.4508 31.6784 12.5605 31.6708C12.6702 31.6632 12.7774 31.634 12.8757 31.5848C12.9741 31.5356 13.0618 31.4674 13.1337 31.3842C13.2055 31.301 13.2603 31.2043 13.2946 31.0999C13.329 30.9954 13.3423 30.8851 13.3339 30.7755C13.3254 30.6658 13.2954 30.5589 13.2454 30.4609C13.0456 30.0588 12.9417 29.616 12.9417 29.167C12.9417 28.718 13.0456 28.2751 13.2454 27.873C13.3443 27.6753 13.3605 27.4465 13.2907 27.2368C13.2208 27.0272 13.0705 26.8538 12.8728 26.755Z" fill="#34666f"/>
<path d="M9.93288 26.755C9.7352 26.6561 9.50636 26.6399 9.2967 26.7097C9.08703 26.7796 8.9137 26.9299 8.81485 27.1276C8.49986 27.7613 8.33594 28.4593 8.33594 29.167C8.33594 29.8746 8.49986 30.5727 8.81485 31.2064C8.9137 31.404 9.08703 31.5544 9.29671 31.6242C9.50639 31.6941 9.73524 31.6779 9.93293 31.579C10.1306 31.4802 10.2809 31.3068 10.3508 31.0972C10.4207 30.8875 10.4044 30.6586 10.3056 30.4609C10.1057 30.0589 10.0018 29.616 10.0018 29.167C10.0018 28.718 10.1057 28.2751 10.3056 27.873C10.4044 27.6753 10.4207 27.4465 10.3508 27.2368C10.2809 27.0271 10.1306 26.8538 9.93288 26.755V26.755Z" fill="#34666f"/>
<path d="M39.5895 15.3173C39.7031 15.3175 39.8155 15.2944 39.9198 15.2494C40.0242 15.2044 40.1181 15.1385 40.196 15.0558C40.6802 14.5397 41.0383 13.9185 41.2423 13.2409C41.4463 12.5633 41.4905 11.8476 41.3715 11.15C41.3338 10.9322 41.2111 10.7383 41.0305 10.611C40.8499 10.4836 40.626 10.4333 40.4082 10.4709C40.1905 10.5086 39.9966 10.6313 39.8692 10.8119C39.7419 10.9926 39.6915 11.2164 39.7292 11.4342C39.8047 11.8768 39.7766 12.3309 39.6472 12.7608C39.5178 13.1908 39.2906 13.5849 38.9833 13.9123C38.8717 14.0307 38.7972 14.1792 38.769 14.3394C38.7408 14.4997 38.7601 14.6647 38.8245 14.8141C38.889 14.9635 38.9958 15.0908 39.1317 15.1802C39.2676 15.2696 39.4268 15.3173 39.5895 15.3173V15.3173Z" fill="#34666f"/>
<path d="M41.7983 14.7598C41.6467 14.9207 41.5651 15.1351 41.5717 15.356C41.5782 15.577 41.6722 15.7863 41.833 15.9379C41.9938 16.0895 42.2082 16.171 42.4292 16.1645C42.6501 16.158 42.8594 16.064 43.011 15.9032C43.4952 15.3871 43.8533 14.766 44.0572 14.0883C44.2611 13.4107 44.3053 12.6951 44.1863 11.9975C44.1687 11.8888 44.1297 11.7846 44.0715 11.691C44.0133 11.5975 43.9372 11.5164 43.8475 11.4524C43.7578 11.3884 43.6563 11.3429 43.5489 11.3184C43.4415 11.294 43.3302 11.291 43.2217 11.3098C43.1131 11.3286 43.0094 11.3687 42.9164 11.4278C42.8235 11.487 42.7432 11.564 42.6801 11.6543C42.6171 11.7447 42.5727 11.8467 42.5493 11.9543C42.526 12.062 42.5242 12.1732 42.5441 12.2816C42.6196 12.7242 42.5915 13.1783 42.4621 13.6083C42.3327 14.0382 42.1055 14.4324 41.7983 14.7598V14.7598Z" fill="#34666f"/>
</svg>
