<svg width="42" height="50" viewBox="0 0 42 50" fill="none" xmlns="http://www.w3.org/2000/svg">
<path d="M31.0079 11.2449H22.104C21.6994 11.2449 21.3716 11.5728 21.3716 11.9773C21.3716 12.3818 21.6994 12.7097 22.104 12.7097H31.0079C31.4125 12.7097 31.7403 12.3818 31.7403 11.9773C31.7403 11.5728 31.4125 11.2449 31.0079 11.2449Z" fill="#34666f"/>
<path d="M31.0085 14.4844H18.1948C17.7902 14.4844 17.4624 14.8123 17.4624 15.2168C17.4624 15.6213 17.7902 15.9492 18.1948 15.9492H31.0085C31.4131 15.9492 31.7409 15.6213 31.7409 15.2168C31.7409 14.8123 31.4131 14.4844 31.0085 14.4844Z" fill="#34666f"/>
<path d="M31.0085 17.7236H18.1948C17.7902 17.7236 17.4624 18.0516 17.4624 18.4561C17.4624 18.8605 17.7902 19.1885 18.1948 19.1885H31.0085C31.4131 19.1885 31.7409 18.8605 31.7409 18.4561C31.7409 18.0516 31.4131 17.7236 31.0085 17.7236Z" fill="#34666f"/>
<path d="M26.5565 22.4275C26.9611 22.4275 27.2889 22.0996 27.2889 21.6951C27.2889 21.2906 26.9611 20.9626 26.5565 20.9626H18.1948C17.7902 20.9626 17.4624 21.2906 17.4624 21.6951C17.4624 22.0996 17.7902 22.4275 18.1948 22.4275H26.5565Z" fill="#34666f"/>
<path d="M9.21045 25.667H31.0082C31.4127 25.667 31.7406 25.3391 31.7406 24.9346C31.7406 24.5301 31.4127 24.2021 31.0082 24.2021H9.21045C8.80586 24.2021 8.47803 24.5301 8.47803 24.9346C8.47803 25.3391 8.80586 25.667 9.21045 25.667V25.667Z" fill="#34666f"/>
<path d="M23.4034 32.1455C23.808 32.1455 24.1358 31.8176 24.1358 31.4131C24.1358 31.0086 23.808 30.6807 23.4034 30.6807H5.30029C4.8957 30.6807 4.56787 31.0086 4.56787 31.4131C4.56787 31.8176 4.8957 32.1455 5.30029 32.1455H23.4034Z" fill="#34666f"/>
<path d="M16.0019 20.9676V12.7049C16.0019 11.8999 15.347 11.2449 14.5419 11.2449H6.87011C6.06514 11.2449 5.41016 11.8999 5.41016 12.7049V20.9676C5.41016 21.7727 6.06514 22.4276 6.87011 22.4276H14.5419C15.347 22.4276 16.0019 21.7727 16.0019 20.9676ZM6.87011 12.7097L14.5371 12.7049L14.5423 20.9627L6.875 20.9676L6.87011 12.7097Z" fill="#34666f"/>
<path d="M31.7403 5.23535C31.7403 4.73779 31.3355 4.33301 30.838 4.33301H5.47021C4.97266 4.33301 4.56787 4.73779 4.56787 5.23535V8.40595C4.56787 8.90351 4.97275 9.30819 5.47021 9.30819H30.838C31.3356 9.30819 31.7403 8.90341 31.7403 8.40595V5.23535ZM30.2754 7.84335H6.03271V5.79795H30.2754V7.84335Z" fill="#34666f"/>
<path d="M35.1405 43.3224L32.253 42.8411C31.7822 42.7627 31.3048 42.7231 30.8274 42.7231H19.6326C19.228 42.7231 18.9002 43.0511 18.9002 43.4556C18.9002 43.8601 19.228 44.188 19.6326 44.188H22.4585V46.0212H12.3315V44.188H16.2146C16.6192 44.188 16.947 43.8601 16.947 43.4556C16.947 43.0511 16.6192 42.7231 16.2146 42.7231H8.51933C8.31044 42.7231 8.11826 42.7958 7.96669 42.9172H6.1292C5.33613 42.9172 4.69092 43.5623 4.69092 44.3554V45.854C4.69092 46.647 5.33603 47.2922 6.1292 47.2922H7.96679C8.11835 47.4135 8.31054 47.4861 8.51933 47.4861H9.24999V48.521C9.24999 49.3366 9.91356 50.0002 10.7291 50.0002H17.6703C18.0749 50.0002 18.4027 49.6723 18.4027 49.2678C18.4027 48.8633 18.0749 48.5353 17.6703 48.5353H10.7291C10.7212 48.5353 10.7148 48.5289 10.7148 48.521V47.4861H30.8274C31.3166 47.4861 31.793 47.4447 32.2531 47.3682L35.1739 46.8813C36.1513 46.7184 36.8038 45.8209 36.6593 44.838C36.5455 44.0639 35.9352 43.4548 35.1405 43.3224V43.3224ZM6.15576 44.382H7.63339V45.8272H6.15576V44.382ZM9.09823 44.188H10.8667V46.0212H9.09823V44.188ZM23.9232 44.188H30.752V46.0212H23.9232V44.188ZM34.933 45.4363L32.2168 45.8891V44.3202L34.8997 44.7674C35.0593 44.7939 35.1899 44.9133 35.2102 45.051C35.2374 45.2366 35.1157 45.406 34.933 45.4363V45.4363Z" fill="#34666f"/>
<path d="M39.3288 4.6705H38.8394V4.37636C38.8394 3.25087 37.9238 2.33525 36.7983 2.33525H36.3088V2.04111C36.3088 0.915623 35.3932 0 34.2677 0H2.04072C0.915526 0 0 0.915526 0 2.04082V3.01581C0 3.42031 0.327831 3.74824 0.73242 3.74824C1.13701 3.74824 1.46484 3.42031 1.46484 3.01581V2.04082C1.46484 1.72324 1.72324 1.46484 2.04072 1.46484H34.2677C34.5855 1.46484 34.844 1.72334 34.844 2.04111V23.7863C34.844 25.7501 33.4961 27.405 31.6768 27.8746C31.5623 27.6192 31.3061 27.4414 31.0081 27.4414H5.30058C4.89599 27.4414 4.56815 27.7693 4.56815 28.1738C4.56815 28.5783 4.89599 28.9062 5.30058 28.9062H28.1885C27.9673 29.2324 27.8379 29.6257 27.8379 30.0487V30.7923C27.8379 33.1201 25.9441 35.0139 23.6164 35.0139H2.04072C1.72314 35.0139 1.46484 34.7555 1.46484 34.4379V6.43378C1.46484 6.02929 1.13701 5.70136 0.73242 5.70136C0.327831 5.70136 0 6.02929 0 6.43378V34.4379C0 35.5632 0.915526 36.4787 2.04072 36.4787H2.33515V36.9685C2.33515 38.0938 3.25068 39.0093 4.37597 39.0093H4.6704V39.499C4.6704 40.6243 5.58593 41.5399 6.71122 41.5399H39.3291C40.4543 41.5399 41.3698 40.6243 41.3698 39.4991V6.71161C41.3698 5.58612 40.4542 4.6705 39.3288 4.6705V4.6705ZM34.1223 28.2652C33.0461 31.0191 30.8492 33.2161 28.0953 34.2922C28.8515 33.3266 29.3028 32.1113 29.3028 30.7924V30.0488C29.3028 29.7312 29.5612 29.4728 29.8788 29.4728H30.6223C31.9412 29.4727 33.1566 29.0214 34.1223 28.2652V28.2652ZM39.905 39.499C39.905 39.8166 39.6466 40.0749 39.3291 40.0749H6.71122C6.39364 40.0749 6.13524 39.8165 6.13524 39.499V39.0092H36.7986C37.9239 39.0092 38.8394 38.0937 38.8394 36.9684V26.2328C38.8394 25.8283 38.5115 25.5003 38.107 25.5003C37.7024 25.5003 37.3745 25.8283 37.3745 26.2328V36.9686C37.3745 37.2862 37.1161 37.5446 36.7986 37.5446H4.37597C4.05839 37.5446 3.79999 37.2862 3.79999 36.9686V36.4788H24.2513C30.8998 36.4788 36.3089 31.0699 36.3089 24.4213V3.80009H36.7984C37.1161 3.80009 37.3746 4.05859 37.3746 4.37636V22.8148C37.3746 23.2193 37.7025 23.5472 38.1071 23.5472C38.5116 23.5472 38.8395 23.2193 38.8395 22.8148V6.13534H39.3289C39.6467 6.13534 39.9051 6.39384 39.9051 6.71161V39.499H39.905Z" fill="#34666f"/>
</svg>
