<svg width="50" height="50" viewBox="0 0 50 50" fill="none" xmlns="http://www.w3.org/2000/svg">
<path d="M13.0196 36.6517L16.0317 42.6758C16.2944 43.2014 16.8228 43.5278 17.4103 43.5278H19.4135V48.4854C19.4135 49.3201 20.0925 49.9991 20.9272 49.9991H22.8022C23.2067 49.9991 23.5346 49.6712 23.5346 49.2667C23.5346 48.8622 23.2067 48.5343 22.8022 48.5343H20.9272C20.9003 48.5343 20.8784 48.5124 20.8784 48.4854V40.3411C20.8784 40.3141 20.9003 40.2922 20.9272 40.2922H42.0141C42.041 40.2922 42.0629 40.3141 42.0629 40.3411V48.4854C42.0629 48.5124 42.041 48.5343 42.0141 48.5343H25.7318C25.3272 48.5343 24.9994 48.8622 24.9994 49.2667C24.9994 49.6712 25.3272 49.9991 25.7318 49.9991H42.014C42.8487 49.9991 43.5276 49.3201 43.5276 48.4854V43.5278H45.5309C46.1185 43.5278 46.6468 43.2014 46.9095 42.6758L49.9216 36.6517C49.9427 36.615 49.9684 36.5608 49.9846 36.4914C50.0002 36.4242 50.0012 36.3658 49.9989 36.3242V33.8698C49.9989 33.0352 49.3199 32.3562 48.4853 32.3562H40.2921V29.853C40.2921 26.9442 38.0567 24.5487 35.2139 24.2913C35.2724 24.2383 35.3305 24.1846 35.3872 24.1289C36.4636 23.0702 37.0566 21.6558 37.0566 20.146V17.4573C37.5379 17.1963 37.8654 16.6864 37.8654 16.1015V13.6748C37.8654 11.4868 36.0853 9.70679 33.8974 9.70679H29.044C26.8561 9.70679 25.0759 11.4868 25.0759 13.6748V16.1015C25.0759 16.6864 25.4035 17.1963 25.8848 17.4573V20.0662C25.8848 21.7357 26.6127 23.2471 27.7621 24.2885C24.9028 24.5296 22.6492 26.9322 22.6492 29.8529V32.3561H14.456C13.6214 32.3561 12.9424 33.0351 12.9424 33.8697V36.3241C12.9429 36.3651 12.9468 36.4141 12.9578 36.4684C12.973 36.5438 12.9973 36.6055 13.0196 36.6517V36.6517ZM38.8272 29.8529V32.3561H34.2606L33.8414 29.9101L33.9733 29.5144C34.134 29.5704 34.3044 29.6005 34.479 29.6005C34.5432 29.6005 34.6082 29.5965 34.6732 29.5883C35.2561 29.5156 35.7399 29.1264 35.9357 28.5725L36.7477 26.2753C37.9887 26.9862 38.8272 28.3231 38.8272 29.8529V29.8529ZM30.3806 29.1205L30.1215 28.3433L31.4705 26.3198L32.8195 28.3433L32.5605 29.1205H30.3806ZM32.8391 25.7319H34.7061C34.9311 25.7319 35.1517 25.7507 35.3672 25.7856L34.5546 28.0844C34.5494 28.0988 34.5388 28.129 34.4919 28.1348C34.4455 28.1404 34.4273 28.1141 34.4187 28.1013L32.8391 25.7319ZM28.5225 28.1014C28.5139 28.1142 28.497 28.1411 28.4493 28.1349C28.4024 28.129 28.3918 28.0989 28.3866 28.0845L27.574 25.7857C27.7894 25.7508 28.01 25.732 28.235 25.732H30.1021L28.5225 28.1014ZM30.4704 30.5853H32.4707L32.7743 32.3561H30.1669L30.4704 30.5853ZM26.5407 13.6748C26.5407 12.2945 27.6636 11.1716 29.0439 11.1716H33.8973C35.2776 11.1716 36.4005 12.2945 36.4005 13.6748V16.1015C36.4005 16.1437 36.3662 16.178 36.3241 16.178C35.138 16.178 34.1063 15.3361 33.8709 14.176C33.7258 13.4612 33.0909 12.9424 32.3614 12.9424H30.5798C29.8504 12.9424 29.2155 13.4612 29.0703 14.1761C28.835 15.3361 27.8032 16.178 26.6172 16.178C26.575 16.178 26.5408 16.1436 26.5408 16.1015V13.6748H26.5407ZM27.3495 20.0662V17.5736C28.9083 17.2791 30.1819 16.0634 30.5057 14.4676C30.5128 14.4327 30.544 14.4072 30.5797 14.4072H32.3614C32.3971 14.4072 32.4282 14.4326 32.4353 14.4675C32.7592 16.0634 34.0328 17.2791 35.5916 17.5736V20.146C35.5916 21.2598 35.1542 22.3033 34.3599 23.0845C33.5659 23.8653 32.5151 24.2837 31.3998 24.2665C29.1665 24.2292 27.3495 22.3449 27.3495 20.0662V20.0662ZM24.114 29.8529C24.114 28.323 24.9526 26.9862 26.1936 26.2753L27.0056 28.5725C27.2014 29.1264 27.6852 29.5156 28.2681 29.5883C28.3332 29.5965 28.3979 29.6005 28.4623 29.6005C28.6369 29.6005 28.8074 29.5704 28.968 29.5144L29.0999 29.9102L28.6807 32.3562H24.114V29.8529ZM14.4071 33.8697C14.4071 33.8428 14.4291 33.8209 14.4559 33.8209H48.4853C48.5121 33.8209 48.5341 33.8428 48.5341 33.8697V35.5916H14.4071V33.8697ZM45.5994 42.0206C45.5863 42.0467 45.5601 42.0629 45.5309 42.0629H43.5276V40.341C43.5276 39.5063 42.8487 38.8273 42.014 38.8273H20.9272C20.0925 38.8273 19.4135 39.5063 19.4135 40.341V42.0629H17.4103C17.3811 42.0629 17.3549 42.0467 17.3418 42.0206L14.8597 37.0566H48.0815L45.5994 42.0206Z" fill="#34666f"/>
<path d="M29.853 19.665C30.2576 19.665 30.5855 19.3371 30.5855 18.9326V18.5281C30.5855 18.1236 30.2576 17.7957 29.853 17.7957C29.4484 17.7957 29.1206 18.1236 29.1206 18.5281V18.9326C29.1206 19.3371 29.4485 19.665 29.853 19.665Z" fill="#34666f"/>
<path d="M33.0884 19.665C33.493 19.665 33.8208 19.3371 33.8208 18.9326V18.5281C33.8208 18.1236 33.493 17.7957 33.0884 17.7957C32.6838 17.7957 32.356 18.1236 32.356 18.5281V18.9326C32.356 19.3371 32.6838 19.665 33.0884 19.665Z" fill="#34666f"/>
<path d="M16.9089 21.6887C17.1436 21.6887 17.3798 21.6346 17.5998 21.5246C18.1253 21.2619 18.4518 20.7336 18.4518 20.146V17.7193C18.4518 17.6771 18.4862 17.6428 18.5283 17.6428H19.3371C21.5251 17.6428 23.3051 15.8628 23.3051 13.6748V3.96799C23.3051 1.78004 21.5252 4.01785e-09 19.3371 4.01785e-09H3.96809C1.78014 -9.76504e-05 0 1.77995 0 3.96789V13.6747C0 15.8627 1.78014 17.6427 3.96809 17.6427H5.41269C5.81727 17.6427 6.1451 17.3148 6.1451 16.9103C6.1451 16.5058 5.81727 16.1779 5.41269 16.1779H3.96809C2.58774 16.1779 1.46482 15.055 1.46482 13.6747V3.96789C1.46482 2.58765 2.58774 1.46472 3.96809 1.46472H19.3372C20.7175 1.46472 21.8404 2.58765 21.8404 3.96789V13.6747C21.8404 15.055 20.7175 16.1779 19.3372 16.1779H18.5284C17.6785 16.1779 16.9871 16.8694 16.9871 17.7192V20.1459C16.9871 20.1612 16.9871 20.1932 16.9448 20.2144C16.9022 20.2356 16.8767 20.2163 16.8646 20.2071L11.9034 16.4861C11.6384 16.2873 11.3099 16.1778 10.9785 16.1778H8.36576C7.96118 16.1778 7.63335 16.5057 7.63335 16.9102C7.63335 17.3147 7.96118 17.6426 8.36576 17.6426H10.9785C10.995 17.6426 11.0113 17.6481 11.0245 17.658L15.9857 21.379C16.2591 21.5841 16.5827 21.6887 16.9089 21.6887V21.6887Z" fill="#34666f"/>
<path d="M3.96825 4.70041H19.3375C19.7421 4.70041 20.0699 4.37249 20.0699 3.968C20.0699 3.56352 19.7421 3.2356 19.3375 3.2356H3.96825C3.56367 3.2356 3.23584 3.56352 3.23584 3.968C3.23584 4.37249 3.56367 4.70041 3.96825 4.70041V4.70041Z" fill="#34666f"/>
<path d="M3.96776 7.93601H19.337C19.7416 7.93601 20.0694 7.60808 20.0694 7.2036C20.0694 6.79911 19.7416 6.47119 19.337 6.47119H3.96776C3.56318 6.47119 3.23535 6.79911 3.23535 7.2036C3.23535 7.60808 3.56318 7.93601 3.96776 7.93601V7.93601Z" fill="#34666f"/>
<path d="M3.96776 11.1716H19.337C19.7416 11.1716 20.0694 10.8437 20.0694 10.4392C20.0694 10.0347 19.7416 9.70679 19.337 9.70679H3.96776C3.56318 9.70679 3.23535 10.0347 3.23535 10.4392C3.23535 10.8437 3.56318 11.1716 3.96776 11.1716V11.1716Z" fill="#34666f"/>
<path d="M3.96776 14.4072H11.248C11.6526 14.4072 11.9804 14.0793 11.9804 13.6748C11.9804 13.2703 11.6526 12.9424 11.248 12.9424H3.96776C3.56318 12.9424 3.23535 13.2703 3.23535 13.6748C3.23535 14.0793 3.56318 14.4072 3.96776 14.4072V14.4072Z" fill="#34666f"/>
</svg>
