<svg width="50" height="47" viewBox="0 0 50 47" fill="none" xmlns="http://www.w3.org/2000/svg">
<path d="M46.3379 0H3.66211C1.64277 0 0 1.64277 0 3.66211V35.8887C0 37.908 1.64277 39.5508 3.66211 39.5508H19.2927L18.4111 42.6361C18.0571 43.8752 16.6694 44.9219 15.3809 44.9219H9.86328C9.45879 44.9219 9.13086 45.2497 9.13086 45.6543C9.13086 46.0589 9.45879 46.3867 9.86328 46.3867H40.1367C40.5412 46.3867 40.8691 46.0589 40.8691 45.6543C40.8691 45.2497 40.5412 44.9219 40.1367 44.9219H34.6191C33.3306 44.9219 31.9429 43.8751 31.5889 42.6361L30.7073 39.5508H46.3379C48.3572 39.5508 50 37.908 50 35.8887V3.66211C50 1.64277 48.3572 0 46.3379 0ZM3.66211 1.46484H46.3379C47.5495 1.46484 48.5352 2.45059 48.5352 3.66211V29.2969H1.46484V3.66211C1.46484 2.45059 2.45049 1.46484 3.66211 1.46484ZM30.1804 43.0386C30.3813 43.7422 30.7809 44.3886 31.3046 44.9219H18.6954C19.2191 44.3886 19.6187 43.7421 19.8196 43.0386L20.8161 39.5508H29.1838L30.1804 43.0386ZM46.3379 38.0859H3.66211C2.45049 38.0859 1.46484 37.1002 1.46484 35.8887V30.7617H48.5352V35.8887C48.5352 37.1002 47.5495 38.0859 46.3379 38.0859Z" fill="#34666f"/>
<path d="M3.66211 27.832H46.3379C46.7424 27.832 47.0703 27.5042 47.0703 27.0996V3.66211C47.0703 3.25752 46.7424 2.92969 46.3379 2.92969H3.66211C3.25762 2.92969 2.92969 3.25752 2.92969 3.66211V13.916C2.92969 14.3206 3.25762 14.6484 3.66211 14.6484C4.0666 14.6484 4.39453 14.3206 4.39453 13.916V4.39453H45.6055V26.3672H4.39453V16.8457C4.39453 16.4411 4.0666 16.1133 3.66211 16.1133C3.25762 16.1133 2.92969 16.4411 2.92969 16.8457V27.0996C2.92969 27.5042 3.25762 27.832 3.66211 27.832Z" fill="#34666f"/>
<path d="M25 32.2266C23.7884 32.2266 22.8027 33.2123 22.8027 34.4238C22.8027 35.6354 23.7884 36.6211 25 36.6211C26.2116 36.6211 27.1973 35.6354 27.1973 34.4238C27.1973 33.2123 26.2116 32.2266 25 32.2266ZM25 35.1562C24.5961 35.1562 24.2676 34.8277 24.2676 34.4238C24.2676 34.0199 24.5961 33.6914 25 33.6914C25.4039 33.6914 25.7324 34.0199 25.7324 34.4238C25.7324 34.8277 25.4039 35.1562 25 35.1562Z" fill="#34666f"/>
</svg>
