<svg width="50" height="50" viewBox="0 0 50 50" fill="none" xmlns="http://www.w3.org/2000/svg">
<path d="M42.4036 2.06058L41.6735 1.99154C41.2308 1.92162 40.8008 1.7867 40.3975 1.59115L39.4456 1.12894C39.2353 1.0277 39.0047 0.975755 38.7713 0.977075C38.5379 0.978395 38.3079 1.03294 38.0987 1.13656C37.9052 1.23074 37.7361 1.36847 37.6048 1.53896C37.4734 1.70944 37.3833 1.90804 37.3416 2.11918C37.3339 2.15922 37.3276 2.19994 37.3233 2.24125C37.3218 2.25609 37.3208 2.27054 37.3203 2.28588L37.2996 3.01439C37.2938 3.20453 37.2449 3.39086 37.1565 3.55931L36.4495 4.90912C36.2516 4.98541 36.071 5.1005 35.9182 5.24763C35.7654 5.39476 35.6436 5.57096 35.56 5.76586L30.4428 17.8121C30.39 17.935 30.3061 18.042 30.1994 18.1226L29.507 18.6506C29.4308 18.1436 29.1924 17.6749 28.8275 17.3148C28.4626 16.9546 27.9909 16.7223 27.4829 16.6526L21.5304 15.7908C20.8891 15.6989 20.2374 15.863 19.7161 16.2478L17.1609 18.1727C16.9314 17.6552 16.6179 17.1791 16.2332 16.7637C15.7536 16.2453 15.1757 15.8274 14.5332 15.5343C13.8906 15.2412 13.1962 15.0788 12.4903 15.0565C9.56875 14.9491 7.09327 17.1676 6.97754 20.0082C6.92505 21.2943 7.36715 22.5516 8.21299 23.5217L7.25518 23.8154C7.03322 23.853 6.8253 23.9491 6.6528 24.0938C6.48031 24.2385 6.34946 24.4265 6.27373 24.6385C6.19705 24.854 6.18162 25.0866 6.22917 25.3103C6.27671 25.5341 6.38537 25.7403 6.54307 25.906L7.14649 26.5459C7.26633 26.6733 7.41103 26.7748 7.57165 26.844C7.73226 26.9133 7.90537 26.9488 8.08028 26.9485C8.16508 26.9485 8.24968 26.9403 8.33292 26.9241C8.51876 26.8888 8.69436 26.8123 8.84681 26.7004C8.99927 26.5884 9.12472 26.4437 9.21397 26.2769L9.27032 26.8048C9.28561 26.9485 9.35348 27.0815 9.46088 27.1782C9.56828 27.2749 9.70763 27.3285 9.85215 27.3287C9.87316 27.3287 9.89415 27.3276 9.91504 27.3253C10.0695 27.3088 10.2111 27.2317 10.3087 27.1108C10.4063 26.9899 10.4519 26.8353 10.4355 26.6808L10.2572 25.0094C10.2563 24.9996 10.2539 24.9899 10.2523 24.9801C10.8332 25.2117 11.4496 25.3416 12.0745 25.364C12.1442 25.3665 12.2137 25.3678 12.2828 25.3679C13.1294 25.3688 13.9643 25.1705 14.7201 24.7891C14.7136 25.1746 14.7714 25.5584 14.891 25.9249C15.1679 26.7745 15.8347 28.3906 17.1894 29.6621C18.5217 30.9128 20.1699 31.543 22.1025 31.543C22.5815 31.5417 23.0597 31.5058 23.5334 31.4356C23.7611 31.4031 23.9791 31.3221 24.1727 31.198C24.3663 31.0739 24.531 30.9097 24.6557 30.7164C24.6629 30.7051 24.6685 30.693 24.6752 30.6816L25.6994 30.8309L25.7134 30.8327C26.017 30.8698 26.3249 30.8215 26.6026 30.6935C27.1311 31.1269 27.7806 31.3864 28.4622 31.4368L27.72 43.0486C27.706 43.2611 27.7361 43.4742 27.8085 43.6745C27.881 43.8748 27.9941 44.0579 28.1408 44.2123C28.2161 44.2926 28.2995 44.3648 28.3897 44.4278L28.1853 45.164C28.1486 45.2893 28.0818 45.4036 27.9906 45.497C27.8995 45.5904 27.7868 45.66 27.6625 45.6997C27.0965 45.8911 26.5005 45.9786 25.9034 45.9579C25.685 45.9527 25.4679 45.9927 25.2657 46.0754C25.0635 46.1581 24.8806 46.2818 24.7285 46.4386C24.5765 46.5955 24.4585 46.7821 24.3821 46.9868C24.3057 47.1915 24.2724 47.4097 24.2845 47.6279C24.2957 47.8254 24.3476 48.0185 24.4369 48.1951C24.5262 48.3717 24.6509 48.528 24.8033 48.6543C24.9557 48.7805 25.1324 48.8739 25.3226 48.9288C25.5127 48.9836 25.7121 48.9986 25.9083 48.9729L26.94 48.9241C26.9582 48.9233 26.9763 48.9215 26.9942 48.9191C27.4021 48.8608 27.8165 48.8665 28.2226 48.9361C28.2468 48.9403 28.2713 48.943 28.2959 48.9441L29.7341 49.0091C29.8005 49.0187 29.8676 49.0235 29.9347 49.0235C30.2926 49.0216 30.6376 48.8891 30.9048 48.6508C31.0664 48.5114 31.1946 48.3373 31.2798 48.1416C31.365 47.9459 31.4051 47.7335 31.397 47.5202C31.3958 47.4957 31.3941 47.4713 31.3917 47.4464L31.3938 47.0918C31.3952 46.8468 31.3768 46.6128 31.3588 46.3866C31.3115 45.7879 31.294 45.4052 31.5217 45.0937C31.6173 44.9561 31.7302 44.8314 31.8575 44.7226H32.1861C32.5914 44.726 32.983 44.5756 33.2818 44.3018C33.5806 44.0279 33.7644 43.651 33.7963 43.2469L34.7737 28.37L40.3064 7.86215C40.3891 7.55249 40.374 7.22487 40.2634 6.92408C40.1528 6.6233 39.9519 6.36401 39.6884 6.18168C39.7079 5.66644 40.0549 5.21029 40.2804 4.96674C40.3092 4.93696 40.344 4.91358 40.3825 4.89814C40.421 4.88269 40.4623 4.87552 40.5037 4.87709C40.6389 4.88197 41.017 4.91175 42.0314 5.05677C42.4061 5.11446 42.7889 5.03173 43.1063 4.82446C43.4238 4.61719 43.6535 4.29999 43.7515 3.93373C43.8051 3.72574 43.8129 3.50859 43.7743 3.29729C43.7357 3.08599 43.6517 2.88561 43.528 2.71C43.3989 2.52674 43.2314 2.37376 43.0372 2.26162C42.8431 2.14949 42.6269 2.08089 42.4036 2.06058V2.06058ZM29.6703 22.7566L29.4248 22.4899C29.5798 22.3244 29.6966 22.1271 29.7672 21.9117C29.8378 21.6962 29.8603 21.468 29.8332 21.2429L29.677 19.9947L30.6822 19.228C31.317 20.5108 32.534 23.5753 31.4954 26.5699L28.0263 26.9813C28.0228 26.9784 28.0194 26.9752 28.0159 26.9723L28.0695 26.7239C28.1032 26.726 28.137 26.7274 28.1708 26.7274C28.3836 26.7275 28.5943 26.6856 28.7908 26.604C29.0207 26.5114 29.2249 26.3647 29.3861 26.1765C29.5473 25.9882 29.6607 25.7639 29.7169 25.5225L30.0392 24.1418C30.0955 23.8984 30.0914 23.6448 30.0271 23.4033C29.9628 23.1618 29.8403 22.9398 29.6703 22.7566V22.7566ZM28.8981 23.8752L28.5758 25.2558C28.5611 25.3157 28.5322 25.3711 28.4915 25.4174C28.4508 25.4637 28.3995 25.4994 28.342 25.5216C28.277 25.549 28.2063 25.5604 28.136 25.5549C28.0657 25.5494 27.9977 25.5271 27.9377 25.49C27.8804 25.4559 27.8333 25.4071 27.801 25.3488C27.7688 25.2905 27.7527 25.2246 27.7543 25.1579L27.8402 23.0831L28.3164 23.016L28.8087 23.5508C28.8493 23.5933 28.8787 23.6451 28.8943 23.7018C28.9099 23.7584 28.9112 23.818 28.8981 23.8752V23.8752ZM8.18614 25.7153C8.17934 25.731 8.16855 25.7447 8.15485 25.7549C8.14115 25.7652 8.12501 25.7717 8.10801 25.7739C8.08852 25.7785 8.06817 25.778 8.04894 25.7724C8.02971 25.7668 8.01224 25.7563 7.99825 25.742L7.39483 25.1021C7.38482 25.0935 7.37775 25.082 7.37461 25.0693C7.37147 25.0565 7.37243 25.043 7.37735 25.0308C7.38403 25.0131 7.39579 24.9978 7.41115 24.9868C7.4265 24.9757 7.44478 24.9695 7.46368 24.9688L8.71944 24.592L8.18614 25.7153ZM8.84307 22.4268C8.35774 21.7341 8.11366 20.901 8.14844 20.0559C8.2254 18.1675 9.66055 16.6342 11.5104 16.2951C11.2291 17.3649 10.8671 18.4119 10.4273 19.4269C9.98042 20.4677 9.45063 21.4709 8.84307 22.4268V22.4268ZM10.2309 23.6736C10.035 23.5659 9.84836 23.4424 9.67266 23.3043C10.3808 22.2229 10.9931 21.0815 11.5023 19.8934C12.0135 18.715 12.4251 17.4959 12.7328 16.2489C12.9623 16.2724 13.1895 16.3144 13.4122 16.3745C13.0895 17.5671 12.686 18.7365 12.2045 19.8744C11.6462 21.1901 10.9864 22.4603 10.2309 23.6736ZM12.1183 24.1923C11.8591 24.1824 11.6014 24.1493 11.3481 24.0934C12.0849 22.8887 12.7317 21.6312 13.2833 20.3313C13.7634 19.1957 14.1691 18.0301 14.4978 16.8418C14.8209 17.0396 15.1152 17.2808 15.3726 17.5588C15.7237 17.9339 15.9967 18.3751 16.1759 18.8567C16.355 19.3382 16.4367 19.8506 16.4161 20.364C16.3266 22.5609 14.3981 24.2802 12.1183 24.1923V24.1923ZM15.955 23.9287C16.757 23.187 17.2999 22.2077 17.5041 21.1346C18.0998 21.4603 18.9834 21.968 19.9218 22.5935C20.2435 22.8083 20.5478 23.0213 20.8382 23.2336C19.1493 23.3774 17.0741 23.8608 15.9383 24.15L15.955 23.9287ZM23.669 30.0834C23.6353 30.1357 23.5906 30.1799 23.5379 30.213C23.4853 30.2462 23.4261 30.2674 23.3645 30.2753C22.9571 30.3359 22.5458 30.3668 22.134 30.3679C18.992 30.3679 17.3515 28.4257 16.536 26.8379L23.079 28.3941C23.1522 28.41 23.22 28.4449 23.2754 28.4953C23.3309 28.5456 23.3721 28.6097 23.3949 28.6811L23.7152 29.7711C23.7306 29.8234 23.7344 29.8785 23.7264 29.9324C23.7184 29.9863 23.6989 30.0379 23.669 30.0835V30.0834ZM23.5262 27.3073L15.9864 25.5028C15.9722 25.4547 15.9601 25.4064 15.9489 25.3578C17.6091 24.9259 20.8801 24.1944 22.2844 24.3948C23.0642 25.0918 23.6511 25.7629 24.0237 26.3886C23.8468 26.7286 23.6769 27.0397 23.5262 27.3074V27.3073ZM17.5772 19.8438C17.5658 19.6839 17.5469 19.5255 17.5207 19.3685L20.4187 17.1854C20.6902 16.9861 21.0293 16.9016 21.3627 16.9501L27.3151 17.812C27.5745 17.8448 27.816 17.9616 28.0028 18.1445C28.1896 18.3274 28.3114 18.5664 28.3497 18.825L28.6708 21.3887C28.6804 21.4971 28.6467 21.6049 28.577 21.6885C28.5073 21.7721 28.4074 21.8246 28.299 21.8347L27.3696 21.9659C27.3075 21.9754 27.2441 21.9721 27.1833 21.9562C27.1225 21.9403 27.0656 21.9122 27.0161 21.8735C26.9736 21.8412 26.9381 21.8007 26.9118 21.7543C26.8855 21.7079 26.8689 21.6567 26.863 21.6036L26.7015 20.034C26.671 19.767 26.5459 19.5198 26.3488 19.337C26.1518 19.1543 25.8958 19.0482 25.6272 19.0379L25.572 19.0358C24.6206 18.9974 22.8498 18.9262 22.1556 18.1227C22.1053 18.0645 22.044 18.0167 21.9752 17.9822C21.9065 17.9477 21.8316 17.927 21.7548 17.9214C21.6781 17.9158 21.601 17.9254 21.5279 17.9496C21.4549 17.9738 21.3873 18.0121 21.3291 18.0624C21.2709 18.1127 21.2231 18.174 21.1886 18.2428C21.1541 18.3116 21.1334 18.3864 21.1278 18.4632C21.1222 18.5399 21.1318 18.617 21.156 18.6901C21.1802 18.7631 21.2185 18.8307 21.2689 18.8889C22.2953 20.0767 24.317 20.1584 25.5249 20.2067L25.5409 20.2074L25.6955 21.709C25.7483 22.5071 25.2256 23.891 24.6222 25.1809C22.7155 22.6326 18.7334 20.4449 17.5772 19.8438V19.8438ZM24.498 27.9672C24.7573 27.5082 25.1727 26.748 25.5855 25.8841C26.0988 24.8099 26.4595 23.8867 26.6654 23.1204L26.5832 25.108C26.5671 25.5117 26.7106 25.9054 26.9827 26.2039L26.8998 26.5884C26.5704 26.5979 26.2513 26.7055 25.9834 26.8974L24.498 27.9672ZM27.295 28.4512L26.2572 29.5307C26.206 29.5825 26.1437 29.6219 26.075 29.646C26.0063 29.6701 25.933 29.6781 25.8606 29.6696L24.8591 29.5236L24.7728 29.2136L26.6694 27.8477C26.7365 27.8001 26.8144 27.7703 26.896 27.7608C26.9776 27.7513 27.0603 27.7625 27.1364 27.7934C27.202 27.8181 27.2604 27.8587 27.3064 27.9115C27.3525 27.9643 27.3846 28.0278 27.4001 28.0961C27.4139 28.1594 27.4115 28.2251 27.3931 28.2872C27.3748 28.3492 27.341 28.4057 27.295 28.4512V28.4512ZM27.5126 29.9161L28.1397 29.2636C28.2887 29.1093 28.4044 28.9261 28.4798 28.7253C28.5551 28.5245 28.5885 28.3104 28.5778 28.0962L30.0095 27.9265L28.7349 30.278C28.3015 30.2743 27.878 30.1488 27.5126 29.9158V29.9161ZM30.1908 46.4795C30.2075 46.6907 30.2232 46.8897 30.2222 47.085L30.2198 47.4735C30.2197 47.4992 30.2213 47.5249 30.2245 47.5504C30.2255 47.558 30.2262 47.5657 30.2265 47.5725C30.2258 47.6106 30.2169 47.648 30.2004 47.6823C30.1839 47.7166 30.1601 47.7469 30.1308 47.7711C30.0992 47.8007 30.0615 47.8229 30.0204 47.8362C29.9792 47.8495 29.9357 47.8536 29.8928 47.8481C29.8685 47.8439 29.844 47.8412 29.8193 47.8401L28.3849 47.7751C27.88 47.6922 27.3656 47.6853 26.8587 47.7549L25.8293 47.8037C25.8112 47.8046 25.7931 47.8063 25.7751 47.8088C25.736 47.8156 25.6958 47.814 25.6573 47.8043C25.6188 47.7946 25.5827 47.7769 25.5515 47.7524C25.5219 47.728 25.4979 47.6975 25.4811 47.6631C25.4643 47.6287 25.455 47.5911 25.4538 47.5528C25.4514 47.4973 25.4606 47.4419 25.4807 47.3901C25.5009 47.3384 25.5317 47.2914 25.571 47.2522C25.6078 47.2125 25.6526 47.181 25.7024 47.1597C25.7523 47.1385 25.806 47.1279 25.8602 47.1288C26.598 47.1547 27.3344 47.0469 28.0339 46.8107C28.3401 46.7102 28.617 46.5361 28.8401 46.3037C29.0633 46.0712 29.2259 45.7874 29.3138 45.4774L29.5231 44.7234H30.3833C30.0997 45.3097 30.1471 45.9256 30.1908 46.4792V46.4795ZM39.1752 7.55756L33.6273 28.1217C33.6172 28.159 33.6109 28.1973 33.6083 28.2359L32.6271 43.1706C32.6153 43.2781 32.5633 43.377 32.4815 43.4477C32.3997 43.5183 32.2942 43.5554 32.1862 43.5515H29.3304C29.2678 43.5523 29.2058 43.5402 29.1482 43.5159C29.0906 43.4917 29.0386 43.4557 28.9955 43.4104C28.9591 43.3723 28.9309 43.3272 28.9127 43.2777C28.8944 43.2283 28.8865 43.1757 28.8895 43.1231L29.6632 31.0243L31.4341 27.7575L31.7297 27.7224C31.9278 27.695 32.1139 27.6117 32.2663 27.4821C32.4186 27.3526 32.5308 27.1822 32.5896 26.9911C33.9422 23.1503 32.1184 19.3726 31.5147 18.2849C31.5169 18.2799 31.5194 18.2751 31.5216 18.2701L36.6388 6.22377C36.6638 6.16674 36.7011 6.11592 36.748 6.07489C36.7948 6.03387 36.8501 6.00365 36.91 5.98636C36.9754 5.96587 37.0445 5.95993 37.1124 5.96895C37.1804 5.97798 37.2455 6.00175 37.3033 6.03861L38.9996 7.12894C39.0712 7.17176 39.1271 7.23664 39.1587 7.31386C39.1904 7.39108 39.1962 7.47648 39.1752 7.55726V7.55756ZM42.6173 3.63998C42.5904 3.72646 42.5329 3.8002 42.4557 3.84746C42.3784 3.89471 42.2866 3.91226 42.1974 3.89681C41.3826 3.78031 40.8268 3.71615 40.5453 3.70609C40.3354 3.69799 40.1263 3.73531 39.9322 3.81548C39.738 3.89566 39.5635 4.01681 39.4205 4.17064C39.0621 4.54917 38.7914 5.00193 38.6276 5.49681L37.9368 5.05267C37.8769 5.01472 37.8145 4.9807 37.7502 4.95082L38.1944 4.10277C38.3653 3.77628 38.4599 3.41526 38.4711 3.04691L38.4906 2.34759L38.4918 2.34144C38.4999 2.30709 38.5159 2.27508 38.5385 2.24796C38.5611 2.22085 38.5896 2.19936 38.622 2.18519C38.6703 2.1612 38.7235 2.14855 38.7775 2.14823C38.8315 2.14791 38.8849 2.15992 38.9335 2.18334L39.8855 2.64554C40.3988 2.89459 40.9466 3.06542 41.5105 3.15238C41.5221 3.15414 41.5335 3.15551 41.545 3.15668L42.2929 3.22748C42.3473 3.2318 42.4001 3.2479 42.4476 3.27468C42.4952 3.30146 42.5364 3.33827 42.5683 3.38256C42.5948 3.41925 42.613 3.46133 42.6214 3.50581C42.6299 3.5503 42.6285 3.5961 42.6173 3.63998V3.63998Z" fill="#34666f"/>
<path d="M31.9947 10.3591C32.0654 10.3894 32.1414 10.4056 32.2184 10.4065C32.2954 10.4074 32.3718 10.3932 32.4432 10.3645C32.5147 10.3359 32.5798 10.2934 32.6348 10.2396C32.6898 10.1858 32.7336 10.1216 32.7638 10.0508L34.2967 6.4669C34.3579 6.32399 34.3597 6.16266 34.3019 6.01839C34.244 5.87412 34.1313 5.75873 33.9884 5.69761C33.8455 5.63649 33.6841 5.63463 33.5399 5.69246C33.3956 5.75029 33.2802 5.86306 33.2191 6.00596L31.6864 9.58994C31.6253 9.73282 31.6234 9.89412 31.6812 10.0384C31.739 10.1826 31.8518 10.298 31.9947 10.3591V10.3591Z" fill="#34666f"/>
<path d="M40.7705 12.0032C40.6955 11.9859 40.6179 11.9836 40.542 11.9964C40.4661 12.0092 40.3934 12.0369 40.3282 12.0778C40.263 12.1187 40.2066 12.1721 40.162 12.2349C40.1175 12.2976 40.0858 12.3686 40.0687 12.4436L39.2282 16.1163C39.211 16.1913 39.2088 16.269 39.2216 16.3449C39.2344 16.4207 39.2621 16.4934 39.303 16.5585C39.3439 16.6237 39.3973 16.6802 39.46 16.7248C39.5228 16.7694 39.5937 16.8012 39.6687 16.8183C39.7437 16.8355 39.8214 16.8377 39.8973 16.8249C39.9731 16.812 40.0458 16.7844 40.1109 16.7435C40.1761 16.7026 40.2326 16.6492 40.2772 16.5865C40.3218 16.5237 40.3536 16.4528 40.3707 16.3778L41.2113 12.7051C41.2284 12.63 41.2306 12.5524 41.2178 12.4765C41.2049 12.4006 41.1772 12.328 41.1363 12.2628C41.0954 12.1977 41.042 12.1412 40.9792 12.0966C40.9165 12.0521 40.8456 12.0203 40.7705 12.0032V12.0032Z" fill="#34666f"/>
<path d="M41.4004 9.24914C41.2489 9.21448 41.0899 9.24141 40.9583 9.324C40.8267 9.4066 40.7332 9.5381 40.6986 9.68957L40.4533 10.7617C40.4361 10.8368 40.4339 10.9144 40.4467 10.9903C40.4595 11.0662 40.4872 11.1388 40.5281 11.204C40.569 11.2692 40.6224 11.3257 40.6851 11.3703C40.7479 11.4148 40.8188 11.4466 40.8938 11.4638C40.9688 11.481 41.0465 11.4832 41.1224 11.4703C41.1982 11.4575 41.2708 11.4298 41.336 11.3889C41.4012 11.348 41.4577 11.2947 41.5023 11.2319C41.5469 11.1692 41.5787 11.0983 41.5958 11.0233L41.8411 9.95148C41.8584 9.87642 41.8606 9.79871 41.8478 9.72277C41.835 9.64684 41.8073 9.57418 41.7664 9.50895C41.7254 9.44372 41.672 9.3872 41.6093 9.34262C41.5465 9.29804 41.4755 9.26627 41.4004 9.24914V9.24914Z" fill="#34666f"/>
<path d="M31.1782 10.9188L30.9976 11.3643C30.9677 11.4358 30.9522 11.5125 30.9521 11.59C30.9521 11.6675 30.9674 11.7443 30.9972 11.8158C31.027 11.8874 31.0707 11.9523 31.1258 12.0069C31.1809 12.0614 31.2462 12.1045 31.318 12.1336C31.3899 12.1627 31.4668 12.1773 31.5443 12.1765C31.6218 12.1756 31.6984 12.1595 31.7696 12.1288C31.8408 12.0982 31.9052 12.0537 31.9591 11.998C32.0131 11.9423 32.0554 11.8765 32.0836 11.8043L32.2642 11.3587C32.2951 11.287 32.3114 11.2099 32.3121 11.1318C32.3127 11.0538 32.2978 10.9764 32.2682 10.9042C32.2385 10.8319 32.1948 10.7664 32.1394 10.7113C32.0841 10.6563 32.0183 10.6128 31.9459 10.5836C31.8736 10.5543 31.7961 10.5397 31.718 10.5408C31.64 10.5419 31.5629 10.5586 31.4914 10.5898C31.4199 10.6211 31.3554 10.6664 31.3016 10.7229C31.2478 10.7795 31.2058 10.8462 31.1782 10.9192V10.9188Z" fill="#34666f"/>
</svg>
