<svg width="50" height="50" viewBox="0 0 50 50" fill="none" xmlns="http://www.w3.org/2000/svg">
<g clip-path="url(#clip0)">
<path d="M34.2274 14.3236L33.6858 14.1878C31.0718 13.535 28.3301 14.5995 26.8416 16.8453C26.5986 17.2361 26.7183 17.7499 27.1091 17.993C27.4839 18.2261 27.9754 18.1265 28.23 17.7661C29.3293 16.1105 31.3512 15.3251 33.2799 15.8044L33.8224 15.9403C34.2696 16.0489 34.7203 15.7744 34.829 15.3272C34.9365 14.8845 34.6686 14.4375 34.2274 14.3236Z" fill="#34666f"/>
<path d="M42.9399 23.9307C42.7291 23.8606 42.4992 23.8776 42.301 23.9777H42.3035C38.4539 25.9019 33.9231 25.9019 30.0735 23.9777C29.6628 23.7701 29.1615 23.9348 28.9539 24.3455C28.8536 24.5437 28.8368 24.7737 28.9069 24.9844L29.7027 27.381C30.8791 30.9626 34.7361 32.9124 38.3177 31.736C40.379 31.0589 41.9957 29.4423 42.6727 27.381L43.4677 24.9844C43.6129 24.5477 43.3765 24.076 42.9399 23.9307ZM41.0919 26.857C40.2043 29.565 37.2895 31.0407 34.5813 30.1531C33.0206 29.6415 31.7967 28.4176 31.2852 26.857L31.071 26.2111C34.3827 27.3778 37.9935 27.3778 41.3052 26.2111L41.0919 26.857Z" fill="#34666f"/>
<path d="M46.6426 17.1886C46.6341 17.1749 46.625 17.1613 46.6157 17.148C45.1261 14.9046 42.386 13.8414 39.7732 14.493L39.2298 14.6297C38.7913 14.7694 38.5492 15.2383 38.689 15.6767C38.8166 16.0768 39.2219 16.3194 39.6348 16.243L40.179 16.1071C42.1072 15.6283 44.1284 16.4136 45.2273 18.0688C45.4703 18.4596 45.9843 18.5794 46.375 18.3363C46.7659 18.0933 46.8857 17.5794 46.6426 17.1886Z" fill="#34666f"/>
<path d="M49.4307 6.73533C40.8338 3.87533 31.5419 3.87533 22.945 6.73533C22.6055 6.84918 22.3766 7.1672 22.3766 7.52533V13.732C15.3117 15.2866 7.95748 14.8952 1.0975 12.5995C0.66104 12.4535 0.188854 12.6892 0.0430207 13.1256C0.0145833 13.2107 2.82887e-09 13.2998 2.82887e-09 13.3895V25.6236C-0.000104164 32.379 2.87656 38.8147 7.90998 43.3203C10.9035 45.9978 15.3955 46.1146 18.5241 43.5961L18.7791 43.3911C22.2205 40.6344 24.8155 36.9639 26.2666 32.8003C27.3946 34.5325 28.7463 36.1083 30.2866 37.4869C33.2799 40.1644 37.7716 40.2812 40.8999 37.7628L41.1549 37.5578C46.765 33.0636 50.021 26.2577 49.9999 19.0695V7.52533C49.9998 7.16699 49.7705 6.84887 49.4307 6.73533ZM17.7341 42.0936L17.4841 42.2986C14.9889 44.3072 11.4061 44.2131 9.01998 42.0761C4.34041 37.8875 1.66614 31.904 1.66666 25.6236V14.5303C8.38259 16.5755 15.5063 16.8908 22.3766 15.447V19.7936C22.3766 20.2808 22.3919 20.7681 22.4225 21.2553C22.4325 21.417 22.4541 21.577 22.4675 21.7386C22.4941 22.062 22.5191 22.3861 22.5591 22.7086C22.5841 22.9045 22.62 23.0978 22.6491 23.292C22.6925 23.5786 22.7325 23.8661 22.7858 24.1511C22.8241 24.3578 22.875 24.5628 22.9191 24.7686C22.9775 25.0386 23.0316 25.3095 23.0991 25.577C23.1533 25.7903 23.2183 26.0011 23.2775 26.2128C23.35 26.4695 23.4191 26.727 23.5 26.9811C23.5683 27.1961 23.6466 27.4078 23.7208 27.6203C23.8041 27.8703 23.8916 28.1161 23.9866 28.3611C24.0699 28.5744 24.1608 28.7836 24.2491 28.9936C24.35 29.2336 24.4483 29.4736 24.5566 29.7094C24.6533 29.9203 24.7591 30.1261 24.8624 30.3353C24.9516 30.5153 25.0291 30.6986 25.1266 30.8769C23.9009 35.2991 21.3145 39.2234 17.7341 42.0936ZM48.3332 19.0695C48.3523 25.7527 45.3256 32.0805 40.1107 36.2603L39.8558 36.4653C37.3616 38.4714 33.7818 38.3772 31.3966 36.2428C29.5229 34.5667 27.9511 32.5812 26.7499 30.3728C25.4246 27.9424 24.5654 25.2856 24.2166 22.5395C24.1013 21.6273 24.0435 20.7088 24.0433 19.7895V8.13032C31.9472 5.632 40.4293 5.632 48.3332 8.13032V19.0695Z" fill="#34666f"/>
<path d="M10.0351 21.3812C9.6513 21.1267 9.1338 21.2315 8.87932 21.6153L8.51765 22.1628C7.55234 23.624 5.91807 24.5029 4.16683 24.5028C3.70662 24.5028 3.3335 24.876 3.3335 25.3362C3.3335 25.7964 3.70662 26.1695 4.16683 26.1695C6.47682 26.1702 8.63286 25.0115 9.90682 23.0845L10.2693 22.537C10.5238 22.1531 10.419 21.6356 10.0351 21.3812Z" fill="#34666f"/>
<path d="M18.7115 33.6669H18.7073C15.546 31.5378 11.4095 31.5378 8.24818 33.6669C6.9112 34.5654 6.55568 36.3776 7.45411 37.7145C7.99391 38.5179 8.89703 39.001 9.86484 39.0044C10.3155 39.0042 10.7598 38.8986 11.1623 38.6961C12.6208 37.9686 14.3364 37.9686 15.7948 38.6961C17.2299 39.4216 18.9815 38.8465 19.707 37.4114C20.3743 36.0915 19.9462 34.4811 18.7115 33.6669ZM18.124 36.7844C17.7784 37.3047 17.0994 37.4858 16.5407 37.2069C14.611 36.2432 12.3404 36.2432 10.4107 37.2069C9.85203 37.4869 9.17224 37.3056 8.82734 36.7844C8.44453 36.2109 8.59859 35.4357 9.17151 35.0519C11.772 33.3009 15.1743 33.3009 17.7748 35.0519C18.3495 35.434 18.5058 36.2095 18.124 36.7844Z" fill="#34666f"/>
<path d="M22.8025 28.8655L21.175 25.0688L21.1666 25.0546C21.0504 24.7251 20.7395 24.5042 20.39 24.503C18.6389 24.5033 17.0048 23.6242 16.04 22.163L15.6767 21.6155C15.4222 21.2318 14.9049 21.1273 14.5212 21.3817C14.1376 21.6362 14.033 22.1535 14.2875 22.5371L14.6508 23.0846C15.6986 24.6635 17.3521 25.7394 19.22 26.058L18.0158 28.8655C17.4489 30.1872 18.0609 31.7184 19.3827 32.2853C20.7045 32.8521 22.2356 32.2402 22.8025 30.9184C23.0836 30.263 23.0836 29.5209 22.8025 28.8655ZM21.1916 30.4096C20.8826 30.8416 20.2819 30.9412 19.85 30.6321C19.7641 30.5707 19.6889 30.4956 19.6275 30.4096C19.4502 30.1483 19.4187 29.8144 19.5441 29.5246L20.4058 27.5138L21.2675 29.5246C21.3956 29.8132 21.367 30.1471 21.1916 30.4096Z" fill="#34666f"/>
</g>
<defs>
<clipPath id="clip0">
<rect width="50" height="50" fill="white"/>
</clipPath>
</defs>
</svg>
