<svg width="476" height="408" viewBox="0 0 119 102" fill="none" xmlns="http://www.w3.org/2000/svg">
<path d="M19.368 31.344C19.368 33.024 19.92 34.464 21.024 35.664C22.176 36.816 24.12 37.8 26.856 38.616C27 38.712 27 38.88 26.856 39.12C26.76 39.312 26.592 39.528 26.352 39.768C26.112 40.008 25.824 40.224 25.488 40.416C25.2 40.608 24.96 40.728 24.768 40.776C19.392 40.536 15.216 41.712 12.24 44.304C9.264 46.848 7.776 50.712 7.776 55.896C7.776 57.576 8.016 59.136 8.496 60.576C9.024 62.016 9.744 63.264 10.656 64.32C11.616 65.376 12.744 66.216 14.04 66.84C15.384 67.416 16.896 67.704 18.576 67.704C22.512 67.704 25.728 66.792 28.224 64.968C30.72 63.144 32.52 60.192 33.624 56.112C33.768 55.872 33.912 55.8 34.056 55.896C34.248 55.992 34.368 56.184 34.416 56.472C33.84 59.16 33.144 61.392 32.328 63.168C31.56 64.944 30.84 65.976 30.168 66.264C28.488 67.032 26.448 67.68 24.048 68.208C21.696 68.736 19.296 69 16.848 69C14.832 69 13.032 68.688 11.448 68.064C9.912 67.44 8.616 66.6 7.56 65.544C6.504 64.488 5.688 63.288 5.112 61.944C4.584 60.552 4.32 59.112 4.32 57.624C4.32 55.32 4.728 53.16 5.544 51.144C6.408 49.08 7.584 47.256 9.072 45.672C10.608 44.088 12.408 42.744 14.472 41.64C16.584 40.536 18.888 39.768 21.384 39.336C19.848 38.52 18.648 37.56 17.784 36.456C16.92 35.352 16.488 34.152 16.488 32.856C16.488 31.512 16.824 30.24 17.496 29.04C18.216 27.792 19.176 26.712 20.376 25.8C21.624 24.84 23.064 24.072 24.696 23.496C26.376 22.92 28.2 22.632 30.168 22.632C31.32 22.632 32.448 22.752 33.552 22.992C34.656 23.184 35.64 23.472 36.504 23.856C37.368 24.192 38.04 24.6 38.52 25.08C39.048 25.512 39.312 25.968 39.312 26.448C39.312 26.832 39.216 27.288 39.024 27.816C38.88 28.296 38.688 28.8 38.448 29.328C38.256 29.856 38.016 30.36 37.728 30.84C37.488 31.272 37.296 31.584 37.152 31.776C37.056 31.872 36.912 31.896 36.72 31.848C36.576 31.752 36.528 31.608 36.576 31.416C36.864 30.888 37.08 30.312 37.224 29.688C37.368 29.016 37.248 28.368 36.864 27.744C36.336 26.88 35.328 26.016 33.84 25.152C32.352 24.288 30.648 23.856 28.728 23.856C27.144 23.856 25.776 24.072 24.624 24.504C23.472 24.936 22.488 25.512 21.672 26.232C20.904 26.952 20.328 27.768 19.944 28.68C19.56 29.544 19.368 30.432 19.368 31.344Z" fill="#3A514E"/>
<path d="M24.6 80.288C24.6 78.656 25.008 77.168 25.824 75.824C26.688 74.432 27.912 73.328 29.496 72.512C29.688 72.416 29.808 72.488 29.856 72.728C29.952 72.92 29.952 73.088 29.856 73.232C28.128 74.192 27.264 75.92 27.264 78.416C27.264 79.664 27.528 80.84 28.056 81.944C28.584 83 29.328 83.936 30.288 84.752C31.296 85.52 32.496 86.144 33.888 86.624C35.328 87.104 36.96 87.344 38.784 87.344C43.152 87.344 46.368 86.408 48.432 84.536C50.544 82.664 51.6 80.36 51.6 77.624C51.6 75.8 51.336 74.144 50.808 72.656C50.28 71.168 49.608 69.776 48.792 68.48C48.024 67.136 47.184 65.864 46.272 64.664C45.36 63.464 44.496 62.264 43.68 61.064C42.912 59.864 42.264 58.616 41.736 57.32C41.208 56.024 40.944 54.608 40.944 53.072C40.944 51.632 41.232 50.288 41.808 49.04C42.384 47.744 43.152 46.64 44.112 45.728C45.072 44.768 46.2 44.024 47.496 43.496C48.84 42.92 50.28 42.632 51.816 42.632C53.976 42.632 55.68 43.184 56.928 44.288C58.176 45.392 58.8 46.64 58.8 48.032C58.8 48.848 58.536 49.736 58.008 50.696C57.48 51.656 56.952 52.496 56.424 53.216C56.232 53.312 56.064 53.312 55.92 53.216C55.824 53.072 55.776 52.88 55.776 52.64C56.4 51.872 56.712 50.816 56.712 49.472C56.712 48.08 56.088 46.904 54.84 45.944C53.64 44.936 52.032 44.432 50.016 44.432C47.952 44.432 46.272 45.032 44.976 46.232C43.728 47.384 43.104 48.848 43.104 50.624C43.104 52.064 43.368 53.432 43.896 54.728C44.472 55.976 45.168 57.248 45.984 58.544C46.8 59.792 47.664 61.064 48.576 62.36C49.536 63.608 50.424 64.928 51.24 66.32C52.056 67.664 52.728 69.104 53.256 70.64C53.832 72.128 54.12 73.76 54.12 75.536C54.12 77.504 53.688 79.328 52.824 81.008C51.96 82.64 50.784 84.056 49.296 85.256C47.808 86.456 46.056 87.392 44.04 88.064C42.024 88.688 39.888 89 37.632 89C33.408 89 30.168 88.184 27.912 86.552C25.704 84.92 24.6 82.832 24.6 80.288ZM57.4658 88.352C59.6258 80.096 62.0498 72.656 64.7378 66.032C67.4258 59.408 70.2338 53.768 73.1618 49.112C76.1378 44.456 79.1618 40.88 82.2338 38.384C85.3058 35.84 88.2818 34.568 91.1618 34.568C92.2178 34.568 93.0818 34.784 93.7538 35.216C94.4738 35.6 94.9538 36.104 95.1938 36.728C95.4818 37.352 95.5538 38.048 95.4098 38.816C95.3138 39.584 94.9778 40.328 94.4018 41.048C94.3058 41.192 94.1858 41.24 94.0418 41.192C93.8978 41.144 93.8258 41.024 93.8258 40.832C94.0178 39.872 93.7298 38.96 92.9618 38.096C92.1938 37.232 90.9698 36.8 89.2898 36.8C87.0338 36.8 84.7298 37.688 82.3778 39.464C80.0258 41.24 77.6738 43.976 75.3218 47.672C72.9698 51.32 70.6418 55.928 68.3378 61.496C66.0818 67.064 63.8978 73.664 61.7858 81.296C62.5538 79.808 63.4418 78.416 64.4498 77.12C65.4578 75.776 66.4898 74.624 67.5458 73.664C68.6018 72.704 69.6578 71.96 70.7138 71.432C71.8178 70.856 72.8738 70.568 73.8818 70.568C74.4578 70.568 74.8898 70.712 75.1778 71C75.4658 71.288 75.6098 71.624 75.6098 72.008C75.6098 72.632 75.3938 73.328 74.9618 74.096C73.9538 75.872 73.1138 77.696 72.4418 79.568C71.8178 81.44 71.5058 83.144 71.5058 84.68C71.5058 85.352 71.5778 85.904 71.7218 86.336C71.9138 86.768 72.2018 86.984 72.5858 86.984C73.0658 86.984 73.5698 86.744 74.0977 86.264C74.6738 85.736 75.1778 85.16 75.6098 84.536C75.7538 84.44 75.8978 84.464 76.0418 84.608C76.1858 84.704 76.2338 84.848 76.1858 85.04C75.8978 85.472 75.5378 85.928 75.1058 86.408C74.6738 86.84 74.1938 87.272 73.6658 87.704C73.1858 88.088 72.6818 88.4 72.1538 88.64C71.6258 88.88 71.1458 89 70.7138 89C69.5138 89 68.9138 87.992 68.9138 85.976C68.9138 84.248 69.2018 82.376 69.7778 80.36C70.3538 78.296 71.0498 76.472 71.8658 74.888C72.1538 74.408 72.2978 74 72.2978 73.664C72.2978 73.232 72.0338 73.016 71.5058 73.016C70.6418 73.016 69.7058 73.352 68.6978 74.024C67.6898 74.696 66.6578 75.68 65.6018 76.976C64.5458 78.272 63.5378 79.856 62.5778 81.728C61.6178 83.552 60.7538 85.616 59.9858 87.92C59.8898 88.256 59.6258 88.52 59.1938 88.712C58.8098 88.904 58.4258 89 58.0418 89C57.5138 89 57.3218 88.784 57.4658 88.352ZM96.0572 84.464C96.1532 84.368 96.2732 84.368 96.4172 84.464C96.5612 84.56 96.6092 84.704 96.5612 84.896C95.5532 86.288 94.5452 87.32 93.5372 87.992C92.5772 88.664 91.7612 89 91.0892 89C90.6572 89 90.2972 88.784 90.0092 88.352C89.7692 87.92 89.6012 87.344 89.5052 86.624C89.4572 85.856 89.4812 85.016 89.5772 84.104C89.7212 83.144 89.9372 82.16 90.2252 81.152C88.9292 83.168 87.5612 84.92 86.1212 86.408C84.6812 87.848 83.2892 88.712 81.9452 89C81.0812 89 80.3372 88.592 79.7132 87.776C79.1372 86.912 78.8492 85.592 78.8492 83.816C78.8492 82.232 79.1612 80.672 79.7852 79.136C80.4572 77.552 81.3452 76.136 82.4492 74.888C83.5532 73.592 84.8252 72.56 86.2652 71.792C87.7052 71.024 89.2172 70.64 90.8012 70.64C91.6652 70.64 92.4092 70.736 93.0332 70.928C93.6572 71.12 94.2332 71.408 94.7612 71.792C95.0492 71.552 95.4332 71.336 95.9132 71.144C96.4412 70.904 96.9212 70.784 97.3532 70.784C97.5932 70.784 97.6652 70.904 97.5692 71.144C96.4652 72.488 95.5052 73.976 94.6892 75.608C93.9212 77.24 93.3212 78.824 92.8892 80.36C92.4572 81.896 92.1692 83.264 92.0252 84.464C91.9292 85.616 92.0252 86.408 92.3132 86.84C92.5532 87.176 92.9852 87.2 93.6092 86.912C94.2332 86.576 95.0492 85.76 96.0572 84.464ZM83.5292 86.552C84.0572 86.552 84.7292 86.192 85.5452 85.472C86.4092 84.704 87.2972 83.72 88.2092 82.52C89.1212 81.32 90.0092 79.976 90.8732 78.488C91.7852 76.952 92.5772 75.416 93.2492 73.88C93.0572 73.256 92.6012 72.752 91.8812 72.368C91.2092 71.984 90.4172 71.792 89.5052 71.792C88.4492 71.792 87.4412 72.08 86.4812 72.656C85.5692 73.184 84.7532 73.952 84.0332 74.96C83.3132 75.92 82.7372 77.072 82.3052 78.416C81.8732 79.76 81.6572 81.248 81.6572 82.88C81.6572 83.936 81.8252 84.824 82.1612 85.544C82.5452 86.216 83.0012 86.552 83.5292 86.552Z" fill="#3A514E"/>
</svg>
