<svg width="287" height="189" viewBox="0 0 287 189" fill="none" xmlns="http://www.w3.org/2000/svg">
<path d="M38.198 60.734C38.198 64.0473 39.2867 66.8873 41.464 69.254C43.736 71.526 47.57 73.4667 52.966 75.076C53.25 75.2653 53.25 75.5967 52.966 76.07C52.7767 76.4487 52.4453 76.8747 51.972 77.348C51.4987 77.8213 50.9307 78.2473 50.268 78.626C49.7 79.0047 49.2267 79.2413 48.848 79.336C38.2453 78.8627 30.0093 81.182 24.14 86.294C18.2707 91.3113 15.336 98.932 15.336 109.156C15.336 112.469 15.8093 115.546 16.756 118.386C17.7973 121.226 19.2173 123.687 21.016 125.77C22.9093 127.853 25.134 129.509 27.69 130.74C30.3407 131.876 33.3227 132.444 36.636 132.444C44.3987 132.444 50.7413 130.645 55.664 127.048C60.5867 123.451 64.1367 117.629 66.314 109.582C66.598 109.109 66.882 108.967 67.166 109.156C67.5447 109.345 67.7813 109.724 67.876 110.292C66.74 115.593 65.3673 119.995 63.758 123.498C62.2433 127.001 60.8233 129.036 59.498 129.604C56.1847 131.119 52.1613 132.397 47.428 133.438C42.7893 134.479 38.056 135 33.228 135C29.252 135 25.702 134.385 22.578 133.154C19.5487 131.923 16.9927 130.267 14.91 128.184C12.8273 126.101 11.218 123.735 10.082 121.084C9.04067 118.339 8.52 115.499 8.52 112.564C8.52 108.02 9.32467 103.76 10.934 99.784C12.638 95.7133 14.9573 92.116 17.892 88.992C20.9213 85.868 24.4713 83.2173 28.542 81.04C32.7073 78.8627 37.2513 77.348 42.174 76.496C39.1447 74.8867 36.778 72.9933 35.074 70.816C33.37 68.6387 32.518 66.272 32.518 63.716C32.518 61.0653 33.1807 58.5567 34.506 56.19C35.926 53.7287 37.8193 51.5987 40.186 49.8C42.6473 47.9067 45.4873 46.392 48.706 45.256C52.0193 44.12 55.6167 43.552 59.498 43.552C61.77 43.552 63.9947 43.7887 66.172 44.262C68.3493 44.6407 70.29 45.2087 71.994 45.966C73.698 46.6287 75.0233 47.4333 75.97 48.38C77.0113 49.232 77.532 50.1313 77.532 51.078C77.532 51.8353 77.3427 52.7347 76.964 53.776C76.68 54.7227 76.3013 55.7167 75.828 56.758C75.4493 57.7993 74.976 58.7933 74.408 59.74C73.9347 60.592 73.556 61.2073 73.272 61.586C73.0827 61.7753 72.7987 61.8227 72.42 61.728C72.136 61.5387 72.0413 61.2547 72.136 60.876C72.704 59.8347 73.13 58.6987 73.414 57.468C73.698 56.1427 73.4613 54.8647 72.704 53.634C71.6627 51.93 69.6747 50.226 66.74 48.522C63.8053 46.818 60.4447 45.966 56.658 45.966C53.534 45.966 50.836 46.392 48.564 47.244C46.292 48.096 44.3513 49.232 42.742 50.652C41.2273 52.072 40.0913 53.6813 39.334 55.48C38.5767 57.184 38.198 58.9353 38.198 60.734Z" fill="#34666f"/>
<path d="M51.1 166.818C51.1 163.599 51.9047 160.665 53.514 158.014C55.218 155.269 57.632 153.091 60.756 151.482C61.1347 151.293 61.3713 151.435 61.466 151.908C61.6553 152.287 61.6553 152.618 61.466 152.902C58.058 154.795 56.354 158.203 56.354 163.126C56.354 165.587 56.8747 167.907 57.916 170.084C58.9573 172.167 60.4247 174.013 62.318 175.622C64.306 177.137 66.6727 178.367 69.418 179.314C72.258 180.261 75.4767 180.734 79.074 180.734C87.6887 180.734 94.0313 178.888 98.102 175.196C102.267 171.504 104.35 166.96 104.35 161.564C104.35 157.967 103.829 154.701 102.788 151.766C101.747 148.831 100.421 146.086 98.812 143.53C97.2973 140.879 95.6407 138.371 93.842 136.004C92.0433 133.637 90.3393 131.271 88.73 128.904C87.2153 126.537 85.9373 124.076 84.896 121.52C83.8547 118.964 83.334 116.171 83.334 113.142C83.334 110.302 83.902 107.651 85.038 105.19C86.174 102.634 87.6887 100.457 89.582 98.658C91.4753 96.7647 93.7 95.2973 96.256 94.256C98.9067 93.12 101.747 92.552 104.776 92.552C109.036 92.552 112.397 93.6407 114.858 95.818C117.319 97.9953 118.55 100.457 118.55 103.202C118.55 104.811 118.029 106.563 116.988 108.456C115.947 110.349 114.905 112.006 113.864 113.426C113.485 113.615 113.154 113.615 112.87 113.426C112.681 113.142 112.586 112.763 112.586 112.29C113.817 110.775 114.432 108.693 114.432 106.042C114.432 103.297 113.201 100.977 110.74 99.084C108.373 97.096 105.202 96.102 101.226 96.102C97.1553 96.102 93.842 97.2853 91.286 99.652C88.8247 101.924 87.594 104.811 87.594 108.314C87.594 111.154 88.1147 113.852 89.156 116.408C90.292 118.869 91.6647 121.378 93.274 123.934C94.8833 126.395 96.5873 128.904 98.386 131.46C100.279 133.921 102.031 136.525 103.64 139.27C105.249 141.921 106.575 144.761 107.616 147.79C108.752 150.725 109.32 153.943 109.32 157.446C109.32 161.327 108.468 164.925 106.764 168.238C105.06 171.457 102.741 174.249 99.806 176.616C96.8713 178.983 93.416 180.829 89.44 182.154C85.464 183.385 81.2513 184 76.802 184C68.4713 184 62.0813 182.391 57.632 179.172C53.2773 175.953 51.1 171.835 51.1 166.818ZM115.919 182.722C120.179 166.439 124.959 151.766 130.261 138.702C135.562 125.638 141.1 114.515 146.875 105.332C152.744 96.1493 158.708 89.0967 164.767 84.174C170.825 79.1567 176.695 76.648 182.375 76.648C184.457 76.648 186.161 77.074 187.487 77.926C188.907 78.6833 189.853 79.6773 190.327 80.908C190.895 82.1387 191.037 83.5113 190.753 85.026C190.563 86.5407 189.901 88.008 188.765 89.428C188.575 89.712 188.339 89.8067 188.055 89.712C187.771 89.6173 187.629 89.3807 187.629 89.002C188.007 87.1087 187.439 85.31 185.925 83.606C184.41 81.902 181.996 81.05 178.683 81.05C174.233 81.05 169.689 82.8013 165.051 86.304C160.412 89.8067 155.773 95.2027 151.135 102.492C146.496 109.687 141.905 118.775 137.361 129.756C132.911 140.737 128.604 153.754 124.439 168.806C125.953 165.871 127.705 163.126 129.693 160.57C131.681 157.919 133.716 155.647 135.799 153.754C137.881 151.861 139.964 150.393 142.047 149.352C144.224 148.216 146.307 147.648 148.295 147.648C149.431 147.648 150.283 147.932 150.851 148.5C151.419 149.068 151.703 149.731 151.703 150.488C151.703 151.719 151.277 153.091 150.425 154.606C148.437 158.109 146.78 161.706 145.455 165.398C144.224 169.09 143.609 172.451 143.609 175.48C143.609 176.805 143.751 177.894 144.035 178.746C144.413 179.598 144.981 180.024 145.739 180.024C146.685 180.024 147.679 179.551 148.721 178.604C149.857 177.563 150.851 176.427 151.703 175.196C151.987 175.007 152.271 175.054 152.555 175.338C152.839 175.527 152.933 175.811 152.839 176.19C152.271 177.042 151.561 177.941 150.709 178.888C149.857 179.74 148.91 180.592 147.869 181.444C146.922 182.201 145.928 182.817 144.887 183.29C143.845 183.763 142.899 184 142.047 184C139.68 184 138.497 182.012 138.497 178.036C138.497 174.628 139.065 170.936 140.201 166.96C141.337 162.889 142.709 159.292 144.319 156.168C144.887 155.221 145.171 154.417 145.171 153.754C145.171 152.902 144.65 152.476 143.609 152.476C141.905 152.476 140.059 153.139 138.071 154.464C136.083 155.789 134.047 157.73 131.965 160.286C129.882 162.842 127.894 165.966 126.001 169.658C124.107 173.255 122.403 177.326 120.889 181.87C120.699 182.533 120.179 183.053 119.327 183.432C118.569 183.811 117.812 184 117.055 184C116.013 184 115.635 183.574 115.919 182.722ZM192.029 175.054C192.219 174.865 192.455 174.865 192.739 175.054C193.023 175.243 193.118 175.527 193.023 175.906C191.035 178.651 189.047 180.687 187.059 182.012C185.166 183.337 183.557 184 182.231 184C181.379 184 180.669 183.574 180.101 182.722C179.628 181.87 179.297 180.734 179.107 179.314C179.013 177.799 179.06 176.143 179.249 174.344C179.533 172.451 179.959 170.51 180.527 168.522C177.971 172.498 175.273 175.953 172.433 178.888C169.593 181.728 166.848 183.432 164.197 184C162.493 184 161.026 183.195 159.795 181.586C158.659 179.882 158.091 177.279 158.091 173.776C158.091 170.652 158.707 167.575 159.937 164.546C161.263 161.422 163.014 158.629 165.191 156.168C167.369 153.612 169.877 151.577 172.717 150.062C175.557 148.547 178.539 147.79 181.663 147.79C183.367 147.79 184.835 147.979 186.065 148.358C187.296 148.737 188.432 149.305 189.473 150.062C190.041 149.589 190.799 149.163 191.745 148.784C192.787 148.311 193.733 148.074 194.585 148.074C195.059 148.074 195.201 148.311 195.011 148.784C192.834 151.435 190.941 154.369 189.331 157.588C187.817 160.807 186.633 163.931 185.781 166.96C184.929 169.989 184.361 172.687 184.077 175.054C183.888 177.326 184.077 178.888 184.645 179.74C185.119 180.403 185.971 180.45 187.201 179.882C188.432 179.219 190.041 177.61 192.029 175.054ZM167.321 179.172C168.363 179.172 169.688 178.462 171.297 177.042C173.001 175.527 174.753 173.587 176.551 171.22C178.35 168.853 180.101 166.203 181.805 163.268C183.604 160.239 185.166 157.209 186.491 154.18C186.113 152.949 185.213 151.955 183.793 151.198C182.468 150.441 180.906 150.062 179.107 150.062C177.025 150.062 175.037 150.63 173.143 151.766C171.345 152.807 169.735 154.322 168.315 156.31C166.895 158.203 165.759 160.475 164.907 163.126C164.055 165.777 163.629 168.711 163.629 171.93C163.629 174.013 163.961 175.764 164.623 177.184C165.381 178.509 166.28 179.172 167.321 179.172Z" fill="#34666f"/>
</svg>
